<svg xmlns="http://www.w3.org/2000/svg" viewBox="0 0 727.86 727.86"><defs><style>.cls-1{fill:#f1f2f2;}.cls-2{fill:#0c9a61;}</style></defs><g id="Layer_2" data-name="Layer 2"><g id="Layer_1-2" data-name="Layer 1"><rect class="cls-1" width="727.86" height="727.86"/><path class="cls-2" d="M164.32,218.71c-12.43-10.33-28.58-16.82-47.31-20.63a2.79,2.79,0,0,0-3,1.46A72.42,72.42,0,0,0,106.66,241a2.79,2.79,0,0,0,2.84,2.51c24.86-.76,46.26-4.94,55.5-21.26A2.8,2.8,0,0,0,164.32,218.71Zm-23,1.62a4.59,4.59,0,1,1,1.29-6.36A4.59,4.59,0,0,1,141.34,220.33Z"/><path class="cls-2" d="M252.93,324.16q3.63,6.87,6.89,13.91A8.37,8.37,0,0,1,252.21,350h-91.1a8.4,8.4,0,0,1-6.64-3.25q-2.75-3.57-5.48-7.2a3,3,0,0,0-5.41,1.17c-.14.65-.26,1.3-.38,2a3.93,3.93,0,0,1-1.63,2.61c-2.23,1.5-4.07-.63-5.7-4.49a73.56,73.56,0,0,1-5.08-29.81,3.12,3.12,0,0,0-.63-1.95c-13.22-17.32-18.3-35.27-21.62-53.36a3,3,0,0,1,3.07-3.59c23.29.58,44-6.93,61.56-24.2a3,3,0,0,1,3.89-.27c20.49,14.86,37.45,31.27,47.58,50.68a3,3,0,0,0,1.06,1.16c14.86,9.33,27.92,19.75,38.19,31.84a3.74,3.74,0,0,1,.4.58c4.35,8.14,3.08,10.83-2.67,9.2l-5.31-1.25A3,3,0,0,0,252.93,324.16Z"/><path class="cls-2" d="M448.93,219.79c-4.95.43-7.37,2.32-9.19,6.64-1.73,4.09-4.13,7.86-5.91,11.93a52.69,52.69,0,0,0-2.75,7.57c-1.83,7.1-8,12.67-4.09,20.32,10.89,21.31,11.64,43.87,7.29,66.92-.2,1.35-.43,2.7-.67,4A15.59,15.59,0,0,1,418.28,350H292.46a5.91,5.91,0,0,1-5.91-5.84v-.06a66.78,66.78,0,0,1,5.25-26.52c14.35-34.81,38.64-60,74.43-73.24a19.32,19.32,0,0,1,5.13-1.46,31.68,31.68,0,0,0,12.3-3,12.31,12.31,0,0,0,2.61-1.25,14.48,14.48,0,0,0,1.93-3.22l3.89-6.61a5.35,5.35,0,0,1,1.72-2l.32-.16a5.86,5.86,0,0,0,3.38-3.59,78.5,78.5,0,0,1,6.11-13.23c3.06-5.33,4.61-9.78-.16-15.76a15.81,15.81,0,0,1-1.74-17.83,6,6,0,0,0,.49-1.14c5.17-16,24.65-20.64,37.48-8.6,2.13,2,4.09,3.35,7.15,3.48,14.65.61,24.4,10.41,25,24.83C472.27,207.24,462.29,218.64,448.93,219.79Z"/><circle class="cls-2" cx="360.18" cy="494.44" r="64.75" transform="translate(-161.8 175.47) rotate(-22.5)"/><path class="cls-2" d="M586.93,367.66h-448a40.65,40.65,0,0,0-40,47.78c22.55,125.36,132.17,220.48,264,220.48s241.47-95.12,264-220.48A40.63,40.63,0,0,0,586.93,367.66ZM360.18,586.3A91.86,91.86,0,1,1,452,494.44,92,92,0,0,1,360.18,586.3Zm91.25-174.21a15.92,15.92,0,1,1,15.9-15.92A15.92,15.92,0,0,1,451.43,412.09Z"/><path class="cls-2" d="M296.52,162c-26.47,4.42-32.85,10.8-37.27,37.27a1.85,1.85,0,0,1-3.65,0c-4.42-26.47-10.8-32.85-37.27-37.27a1.85,1.85,0,0,1,0-3.65c26.47-4.42,32.85-10.8,37.27-37.27a1.85,1.85,0,0,1,3.65,0c4.42,26.47,10.8,32.85,37.27,37.27A1.85,1.85,0,0,1,296.52,162Z"/><path class="cls-2" d="M340.29,203.13c-15.75,2.65-19.59,6.49-22.24,22.24a1.13,1.13,0,0,1-2.23,0c-2.65-15.75-6.49-19.59-22.24-22.24a1.13,1.13,0,0,1,0-2.23c15.75-2.65,19.59-6.49,22.24-22.23a1.13,1.13,0,0,1,2.23,0c2.65,15.74,6.49,19.58,22.24,22.23A1.13,1.13,0,0,1,340.29,203.13Z"/><path class="cls-2" d="M285.77,240.47c-12.73,2.14-15.84,5.25-18,18a.92.92,0,0,1-1.81,0c-2.14-12.73-5.25-15.84-18-18a.92.92,0,0,1,0-1.81c12.73-2.14,15.84-5.25,18-18a.92.92,0,0,1,1.81,0c2.14,12.73,5.25,15.84,18,18A.92.92,0,0,1,285.77,240.47Z"/><path class="cls-2" d="M603.5,346.23h0A16.93,16.93,0,0,1,592.91,350H455a12.24,12.24,0,0,1-12.06-14.3c.14-.83.27-1.65.4-2.48.78-4.16,1.4-8.31,1.82-12.43a5.77,5.77,0,0,1,6.76-5.11,258.87,258.87,0,0,1,38.74,10.71,2.78,2.78,0,0,0,2.25-5.07c-14.85-8.14-29.38-14.56-43.4-18.37l-4.22-5a91,91,0,0,0-2.34-13.33,5.71,5.71,0,0,1,1.35-5.33,8.43,8.43,0,0,1,5.85-2.66C484,275.3,525.8,299.4,547.62,313.8a2.78,2.78,0,0,0,3.57-4.22c-30.25-32.8-77.37-42.94-96.65-45.82a8.45,8.45,0,0,1-7.07-9.87l.94-5.19a24.33,24.33,0,0,1,34.89-17.37,27.6,27.6,0,0,0,5.45,2.08,251.49,251.49,0,0,1,46.61,17.05q3.45,1.66,6.81,3.47l1.07.57c1.6.87,3.19,1.75,4.77,2.66,1.22.7,2.43,1.41,3.64,2.14l1.1.69q2.71,1.72,5.36,3.56a174.47,174.47,0,0,1,40.62,39.52,32,32,0,0,0,5.16,5.49A24.33,24.33,0,0,1,603.5,346.23Z"/><ellipse class="cls-2" cx="544.9" cy="214.46" rx="48.85" ry="12.08" transform="translate(299.72 746.25) rotate(-86.73)"/><ellipse class="cls-2" cx="583.58" cy="209.01" rx="67.17" ry="12.08" transform="translate(67.64 552.61) rotate(-53.37)"/><ellipse class="cls-2" cx="583.23" cy="247.27" rx="46.73" ry="12.08" transform="translate(-45.78 172.1) rotate(-16.16)"/></g></g></svg>